<?xml version="1.0" standalone="no"?><!DOCTYPE svg PUBLIC "-//W3C//DTD SVG 1.1//EN" "http://www.w3.org/Graphics/SVG/1.1/DTD/svg11.dtd"><svg class="icon" width="200px" height="200.00px" viewBox="0 0 1024 1024" version="1.1" xmlns="http://www.w3.org/2000/svg"><path fill="#333333" d="M308.9 796.7c20.4 0 36.9-16.5 36.9-36.9V507.5c0-20.4-16.5-36.9-36.9-36.9S272 487.1 272 507.5v252.3c0 20.4 16.5 36.9 36.9 36.9zM475.6 796.7c20.4 0 36.9-16.5 36.9-36.9V407.1c0-20.4-16.5-36.9-36.9-36.9s-36.9 16.5-36.9 36.9v352.6c-0.1 20.5 16.5 37 36.9 37zM642.2 796.7c20.4 0 36.9-16.5 36.9-36.9V270.6c0-20.4-16.5-36.9-36.9-36.9s-36.9 16.5-36.9 36.9v489.1c0 20.5 16.5 37 36.9 37zM808.9 796.7c20.4 0 36.9-16.5 36.9-36.9V156.9c0-20.4-16.5-36.9-36.9-36.9S772 136.5 772 156.9v602.9c0 20.4 16.5 36.9 36.9 36.9z"  /><path fill="#333333" d="M888.5 836.6H174.7v-657c0-20.4-16.5-36.9-36.9-36.9s-36.9 16.5-36.9 36.9v693.9c0 20.4 16.5 36.9 36.9 36.9h750.8c20.4 0 36.9-16.5 36.9-36.9s-16.6-36.9-37-36.9z"  /></svg>