<?xml version="1.0" standalone="no"?><!DOCTYPE svg PUBLIC "-//W3C//DTD SVG 1.1//EN" "http://www.w3.org/Graphics/SVG/1.1/DTD/svg11.dtd"><svg class="icon" width="200px" height="200.00px" viewBox="0 0 1024 1024" version="1.1" xmlns="http://www.w3.org/2000/svg"><path fill="#333333" d="M511.6 64.1c-247.2 0-448.4 201.1-448.4 448.4 0 124.3 49.8 239.9 140.2 325.5 13.8 13 35.5 12.4 48.6-1.3 13-13.8 12.4-35.5-1.3-48.6C174.1 715.6 132 617.7 132 512.5c0-209.3 170.3-379.7 379.7-379.7s379.7 170.3 379.7 379.7c0 105.2-42.2 203.1-118.7 275.6-13.8 13-14.4 34.8-1.3 48.6 6.8 7.1 15.8 10.7 25 10.7 8.5 0 17-3.1 23.6-9.4 90.4-85.6 140.2-201.2 140.2-325.5-0.3-247.2-201.4-448.4-448.6-448.4z"  /><path fill="#333333" d="M511.6 325.7c19 0 34.4-15.4 34.4-34.4v-90.7c0-19-15.4-34.4-34.4-34.4s-34.4 15.4-34.4 34.4v90.7c0 19 15.4 34.4 34.4 34.4zM257.1 308.7c-13.4-13.4-35.2-13.4-48.6 0-13.4 13.4-13.4 35.2 0 48.6l64.2 64.2c6.7 6.7 15.5 10.1 24.3 10.1s17.6-3.4 24.3-10.1c13.4-13.4 13.4-35.2 0-48.6l-64.2-64.2zM814.6 314.4c-13.4-13.4-35.2-13.4-48.6 0l-64.2 64.2c-13.4 13.4-13.4 35.2 0 48.6 6.7 6.7 15.5 10.1 24.3 10.1s17.6-3.4 24.3-10.1l64.2-64.2c13.5-13.5 13.5-35.2 0-48.6zM511.6 415.5c-15.7 0-29.4 10.6-33.3 25.8-14.1 54.7-60.1 235.9-60.1 270.2 0 51.5 41.9 93.4 93.4 93.4S605 763 605 711.5c0-34.3-46-215.5-60.1-270.2-4-15.2-17.7-25.8-33.3-25.8z m0 320.6c-13.6 0-24.7-11.1-24.7-24.6 0.2-11.4 10.5-59.2 24.7-119 14.1 59.7 24.4 107.5 24.7 118.9-0.1 13.7-11.1 24.7-24.7 24.7z"  /></svg>