<?xml version="1.0" standalone="no"?><!DOCTYPE svg PUBLIC "-//W3C//DTD SVG 1.1//EN" "http://www.w3.org/Graphics/SVG/1.1/DTD/svg11.dtd"><svg class="icon" width="200px" height="200.00px" viewBox="0 0 1024 1024" version="1.1" xmlns="http://www.w3.org/2000/svg"><path d="M921.6 475.2H547.7V101.3c0-20.3-16.5-36.8-36.8-36.8C264.2 64.5 63.5 265.2 63.5 512S264.2 959.4 511 959.4 958.4 758.7 958.4 512c0-20.4-16.4-36.8-36.8-36.8zM511 885.9c-206.2 0-373.9-167.7-373.9-373.9 0-193.8 148.2-353.6 337.1-372.1V512c0 20.3 16.5 36.8 36.8 36.8h372.1C864.5 737.7 704.7 885.9 511 885.9z"  /><path d="M616.4 153.1c118.7 34.8 212.3 126 250.4 243.8 5 15.6 19.5 25.5 35 25.5 3.7 0 7.6-0.6 11.3-1.8 19.3-6.2 29.9-27 23.7-46.3-45.5-141-157.6-250-299.7-291.7-19.5-5.8-39.9 5.5-45.6 24.9-5.7 19.5 5.5 39.9 24.9 45.6z"  /></svg>