<?xml version="1.0" standalone="no"?><!DOCTYPE svg PUBLIC "-//W3C//DTD SVG 1.1//EN" "http://www.w3.org/Graphics/SVG/1.1/DTD/svg11.dtd"><svg class="icon" width="200px" height="200.00px" viewBox="0 0 1024 1024" version="1.1" xmlns="http://www.w3.org/2000/svg"><path fill="#333333" d="M205.3 449.9c-20.3 0-36.8 16.5-36.8 36.8v403.6c0 20.3 16.5 36.8 36.8 36.8s36.8-16.5 36.8-36.8V486.8c0-20.4-16.5-36.9-36.8-36.9zM360 342.3c-20.3 0-36.8 16.5-36.8 36.8v511.2c0 20.3 16.5 36.8 36.8 36.8 20.3 0 36.8-16.5 36.8-36.8V379.1c0-20.3-16.5-36.8-36.8-36.8zM514.7 449.9c-20.3 0-36.8 16.5-36.8 36.8v403.6c0 20.3 16.5 36.8 36.8 36.8s36.8-16.5 36.8-36.8V486.8c0-20.4-16.5-36.9-36.8-36.9zM669.4 342.3c-20.3 0-36.8 16.5-36.8 36.8v511.2c0 20.3 16.5 36.8 36.8 36.8s36.8-16.5 36.8-36.8V379.1c0-20.3-16.5-36.8-36.8-36.8zM824.1 449.9c-20.3 0-36.8 16.5-36.8 36.8v403.6c0 20.3 16.5 36.8 36.8 36.8s36.8-16.5 36.8-36.8V486.8c0.1-20.4-16.4-36.9-36.8-36.9z"  /><path fill="#333333" d="M792.9 311.8c18.2 0 34-13.4 36.5-31.9l18.1-134c1.4-10.2-1.6-20.5-8.1-28.4-6.6-7.9-16.1-12.7-26.4-13.3L662.7 96c-20.6-1.1-37.7 14.5-38.8 34.8-1.1 20.3 14.5 37.7 34.8 38.8l55 3-196 108.9-142.4-106.7c-14.2-10.6-33.9-9.7-47 2.3l-161.4 148c-15 13.7-16 37-2.3 52 7.3 7.9 17.2 11.9 27.2 11.9 8.9 0 17.8-3.2 24.9-9.7L355.6 252l137 102.7c11.6 8.7 27.3 9.8 40 2.7l229.2-127.3-5.4 39.8c-2.7 20.2 11.4 38.7 31.6 41.4 1.6 0.4 3.3 0.5 4.9 0.5z"  /></svg>